<?xml version="1.0" encoding="UTF-8" standalone="no"?>
<!DOCTYPE svg PUBLIC "-//W3C//DTD SVG 1.1//EN" "http://www.w3.org/Graphics/SVG/1.1/DTD/svg11.dtd">
<svg width="100%" height="100%" viewBox="0 0 150 150" version="1.1" xmlns="http://www.w3.org/2000/svg" xmlns:xlink="http://www.w3.org/1999/xlink" xml:space="preserve" xmlns:serif="http://www.serif.com/" style="fill-rule:evenodd;clip-rule:evenodd;stroke-linejoin:round;stroke-miterlimit:2;">
    <g transform="matrix(1.0968,0,0,1.0968,-13.4499,-15.8038)">
        <circle cx="80.621" cy="82.767" r="68.358" style="fill:rgb(248,177,149);"/>
    </g>
    <g transform="matrix(0.81632,0,0,0.81632,10.8041,49.2412)">
        <g transform="matrix(83.3333,0,0,83.3333,29.6823,60.7214)">
            <path d="M0.495,-0.707L0.495,-0.224C0.495,-0.15 0.475,-0.093 0.435,-0.053C0.394,-0.013 0.338,0.007 0.267,0.007C0.19,0.007 0.128,-0.015 0.083,-0.059C0.038,-0.102 0.015,-0.165 0.015,-0.247L0.184,-0.247C0.184,-0.181 0.209,-0.148 0.259,-0.148C0.302,-0.148 0.324,-0.173 0.324,-0.224L0.324,-0.707L0.495,-0.707Z" style="fill:white;fill-rule:nonzero;"/>
        </g>
        <g transform="matrix(83.3333,0,0,83.3333,75.4323,60.7214)">
            <path d="M0.422,-0L0.269,-0.267L0.23,-0.267L0.23,-0L0.059,-0L0.059,-0.707L0.351,-0.707C0.407,-0.707 0.454,-0.697 0.493,-0.678C0.532,-0.659 0.561,-0.632 0.58,-0.599C0.599,-0.565 0.609,-0.526 0.609,-0.483C0.609,-0.432 0.595,-0.388 0.567,-0.352C0.538,-0.316 0.497,-0.291 0.443,-0.278L0.611,-0L0.422,-0ZM0.23,-0.384L0.336,-0.384C0.37,-0.384 0.395,-0.392 0.411,-0.407C0.427,-0.422 0.435,-0.444 0.435,-0.473C0.435,-0.501 0.427,-0.523 0.411,-0.539C0.394,-0.555 0.369,-0.563 0.336,-0.563L0.23,-0.563L0.23,-0.384Z" style="fill:white;fill-rule:nonzero;"/>
        </g>
    </g>
</svg>
