<?xml version="1.0" encoding="UTF-8" standalone="no"?>
<!DOCTYPE svg PUBLIC "-//W3C//DTD SVG 1.1//EN" "http://www.w3.org/Graphics/SVG/1.1/DTD/svg11.dtd">
<svg width="100%" height="100%" viewBox="0 0 150 150" version="1.1" xmlns="http://www.w3.org/2000/svg" xmlns:xlink="http://www.w3.org/1999/xlink" xml:space="preserve" xmlns:serif="http://www.serif.com/" style="fill-rule:evenodd;clip-rule:evenodd;stroke-linejoin:round;stroke-miterlimit:2;">
    <g transform="matrix(1.0968,0,0,1.0968,-13.4499,-15.8038)">
        <circle cx="80.621" cy="82.767" r="68.358" style="fill:rgb(248,177,149);"/>
    </g>
    <g transform="matrix(0.81632,0,0,0.81632,4.44359,49.5133)">
        <g transform="matrix(83.3333,0,0,83.3333,29.6823,60.7214)">
            <path d="M0.382,-0.714C0.472,-0.714 0.547,-0.69 0.606,-0.643C0.665,-0.596 0.703,-0.532 0.72,-0.451L0.539,-0.451C0.526,-0.484 0.505,-0.509 0.478,-0.528C0.45,-0.547 0.417,-0.556 0.379,-0.556C0.329,-0.556 0.289,-0.538 0.258,-0.501C0.227,-0.464 0.212,-0.415 0.212,-0.354C0.212,-0.293 0.227,-0.244 0.258,-0.208C0.289,-0.171 0.329,-0.153 0.379,-0.153C0.417,-0.153 0.45,-0.162 0.478,-0.181C0.505,-0.2 0.526,-0.225 0.539,-0.257L0.72,-0.257C0.703,-0.177 0.665,-0.113 0.606,-0.066C0.547,-0.018 0.472,0.006 0.382,0.006C0.313,0.006 0.253,-0.009 0.201,-0.04C0.149,-0.07 0.109,-0.112 0.081,-0.167C0.052,-0.222 0.038,-0.284 0.038,-0.354C0.038,-0.424 0.052,-0.486 0.081,-0.541C0.109,-0.596 0.149,-0.638 0.201,-0.669C0.253,-0.699 0.313,-0.714 0.382,-0.714Z" style="fill:white;fill-rule:nonzero;"/>
        </g>
        <g transform="matrix(83.3333,0,0,83.3333,92.7656,60.7214)">
            <path d="M0.567,-0.707L0.567,-0.571L0.375,-0.571L0.375,-0L0.203,-0L0.203,-0.571L0.013,-0.571L0.013,-0.707L0.567,-0.707Z" style="fill:white;fill-rule:nonzero;"/>
        </g>
    </g>
</svg>
