<?xml version="1.0" encoding="UTF-8" standalone="no"?>
<!DOCTYPE svg PUBLIC "-//W3C//DTD SVG 1.1//EN" "http://www.w3.org/Graphics/SVG/1.1/DTD/svg11.dtd">
<svg width="100%" height="100%" viewBox="0 0 1500 1500" version="1.1" xmlns="http://www.w3.org/2000/svg" xmlns:xlink="http://www.w3.org/1999/xlink" xml:space="preserve" xmlns:serif="http://www.serif.com/" style="fill-rule:evenodd;clip-rule:evenodd;stroke-linejoin:round;stroke-miterlimit:2;">
    <g transform="matrix(4.8,0,0,4.8,0,0)">
        <path d="M312.5,156.25C312.5,211.75 289.875,254.188 246.25,281.938C222.063,297.375 187.063,312.5 156.25,312.5C102.313,312.5 67.25,303.938 39.188,262.5C22.313,237.5 0,188.75 0,156.25C0,113.438 11,68.375 38.875,40.125C66.75,11.875 112.75,0 156.25,0C215.625,0 261.063,33.125 287.5,81.938C299.25,104 312.5,129.313 312.5,156.25Z" style="fill:white;fill-rule:nonzero;"/>
    </g>
    <g transform="matrix(4.8,0,0,4.8,0,0)">
        <path d="M165.036,79.021C164.848,79.021 164.662,79.045 164.474,79.048C165.252,78.447 166.025,77.77 166.774,77.021C170.607,73.187 173.483,67.808 170.738,65.061C170.252,64.577 169.376,64 167.947,64C165.392,64 161.88,65.925 158.78,69.026C158.284,69.522 157.811,70.038 157.36,70.575L157.36,69.355C157.36,68.36 156.553,67.553 155.558,67.553C154.562,67.553 153.756,68.36 153.756,69.355L153.756,77.722C153.731,78.016 153.731,78.311 153.756,78.605L153.756,80.153C151.487,79.424 149.072,79.024 146.563,79.024L146.56,79.024C140.268,79.024 134.351,81.475 129.902,85.923C125.451,90.373 123,96.29 123,102.584C123,114.141 129.426,135.998 153.746,136C154.237,136 154.727,135.972 155.205,135.913L157.852,136C182.172,136 188.598,114.142 188.598,102.584C188.597,89.59 178.028,79.021 165.036,79.021ZM161.328,71.572C163.934,68.966 166.631,67.601 167.947,67.601C168.075,67.601 168.149,67.614 168.178,67.61C168.394,68.248 167.55,71.147 164.227,74.472C161.621,77.078 158.926,78.442 157.611,78.442C157.504,78.442 157.431,78.433 157.398,78.433C157.39,78.433 157.384,78.433 157.38,78.434C157.359,78.376 157.359,78.28 157.358,78.186L157.358,78.043C157.443,76.993 158.454,74.447 161.328,71.572ZM157.911,132.395L155.179,132.304C155.16,132.303 155.139,132.303 155.119,132.303C155.038,132.303 154.957,132.309 154.876,132.32C154.502,132.37 154.124,132.395 153.746,132.395C132.32,132.393 126.604,113.654 126.604,102.583C126.604,97.251 128.68,92.239 132.449,88.471C136.218,84.702 141.23,82.626 146.562,82.626L146.563,82.626C157.566,82.626 166.519,91.579 166.519,102.583C166.519,105.897 166.321,109.283 165.945,112.374C165.825,113.363 166.529,114.26 167.516,114.381C168.518,114.514 169.403,113.797 169.522,112.81C169.914,109.576 170.122,106.04 170.122,102.583C170.122,94.594 166.125,87.521 160.027,83.259C161.651,82.839 163.328,82.626 165.036,82.626C176.041,82.626 184.993,91.579 184.993,102.583C184.993,113.654 179.277,132.394 157.911,132.395Z" style="fill:rgb(248,177,149);fill-rule:nonzero;"/>
    </g>
    <g transform="matrix(4.8,0,0,4.8,0,0)">
        <path d="M56.091,165.078C56.157,168.97 56.157,202.016 56.157,204.721C56.157,205.71 56.289,205.908 57.279,205.908C59.521,205.908 59.521,205.974 61.764,205.908C62.226,205.908 63.017,205.908 63.413,205.71C63.875,205.512 63.611,189.945 63.611,189.088C63.611,188.165 65.458,188.362 65.986,188.362C77.001,188.362 80.035,180.447 80.035,173.719C80.035,167.651 78.848,156.437 65.128,156.437C62.754,156.437 60.313,156.503 58.004,156.503C57.477,156.503 56.817,156.437 56.355,156.767C55.828,157.163 56.025,163.033 56.091,165.078L56.091,165.078ZM63.677,178.666C63.677,177.215 63.611,168.574 63.677,165.936C63.677,165.54 63.611,165.078 63.677,164.617C63.875,163.891 64.732,163.891 65.392,163.957C69.218,164.221 71.394,167.585 71.724,171.147C71.988,173.719 71.658,177.545 69.811,179.59C68.492,180.975 66.777,181.832 64.534,181.832C64.073,181.832 63.611,181.305 63.611,180.843C63.611,180.117 63.611,179.392 63.677,178.666L63.677,178.666ZM87.921,192.386L87.855,192.386C87.855,194.035 87.789,195.75 87.855,197.465C87.921,199.576 88.053,201.687 88.185,203.797C88.185,204.523 88.383,204.721 89.042,204.853C90.427,205.183 91.747,205.249 93.132,205.249C96.694,205.117 100.256,205.38 103.817,205.249C105.269,205.183 105.928,205.315 107.379,205.051C108.699,204.787 109.16,204.061 109.16,202.082C109.028,200.829 109.094,200.301 109.094,198.784C109.094,196.608 107.577,195.882 106.258,195.948C105.335,196.014 100.915,195.882 99.134,195.882C96.166,195.948 96.628,196.344 96.628,193.244C96.628,190.737 96.694,187.505 96.694,184.933C96.694,183.547 96.826,183.086 98.145,183.086L106.39,183.086C107.709,183.284 108.633,182.36 108.633,180.975C108.633,179.59 108.765,179.524 108.765,178.139L108.567,176.16C108.435,175.038 108.039,174.643 106.918,174.643C106.192,174.643 105.467,174.709 104.741,174.775C101.905,174.972 100.585,174.577 97.815,174.775C96.892,174.775 96.76,174.643 96.694,173.785C96.43,171.213 96.694,168.376 96.958,165.804C97.024,164.749 97.287,164.551 98.277,164.485L107.577,164.419C108.831,164.287 109.226,164.353 109.16,163.099C109.028,161.187 109.226,159.208 109.028,157.295C108.896,156.24 108.567,156.042 107.379,156.042C105.4,156.108 104.939,156.108 102.96,156.24C100.981,156.306 93.066,156.306 91.153,156.306C88.383,156.306 88.185,156.108 88.119,159.472C87.987,162.11 88.053,164.815 88.053,167.519C88.053,172.136 87.789,188.692 87.921,192.386L87.921,192.386ZM123.048,205.38C123.246,205.446 123.84,205.446 124.434,205.446C125.753,205.446 126.149,200.697 126.281,199.708C126.346,198.916 126.544,198.85 127.204,198.718C130.502,198.323 132.151,198.586 135.449,198.652C136.175,198.652 136.57,198.982 136.768,199.576L137.23,201.093C137.626,202.214 137.956,203.6 138.351,204.721C138.615,205.512 138.681,205.446 139.473,205.446C140.528,205.446 144.354,205.446 145.475,205.38C146.992,205.38 145.937,202.28 145.739,201.753C145.145,199.906 145.013,197.993 144.42,196.146C144.156,195.354 136.636,159.67 136.307,157.691C135.845,156.503 136.241,156.437 135.185,156.437C132.943,156.437 130.568,156.569 128.259,156.437C127.336,156.437 127.402,156.701 127.27,157.691C127.138,158.614 124.763,169.102 123.84,173.455C122.653,178.93 121.597,184.207 120.278,189.616C119.816,191.529 116.65,205.314 117.046,205.38C117.244,205.512 117.574,205.446 117.837,205.446C119.486,205.446 121.003,205.446 123.048,205.38L123.048,205.38ZM131.689,190.407L130.304,190.407C128.457,190.407 128.391,190.407 128.853,188.494C129.183,187.043 130.964,179.194 131.359,177.281C131.425,177.149 131.557,177.017 131.623,177.017C131.755,177.017 131.887,177.149 131.953,177.215C132.217,178.007 132.481,179.985 132.745,180.777C133.338,183.284 133.734,185.394 134.328,188.099C134.921,190.473 134.658,190.473 133.47,190.473C132.877,190.473 132.283,190.407 131.689,190.407L131.689,190.407ZM180.141,164.221C180.207,162.044 180.141,160.263 180.141,158.152C180.141,155.712 175.721,155.976 174.138,156.042C167.081,156.503 160.353,160.989 157.12,167.123C156.197,168.904 155.537,170.751 155.076,172.664C153.954,177.149 153.888,181.898 154.416,186.45C154.878,190.737 155.999,195.025 158.638,198.455C163.189,204.457 171.566,206.568 178.756,205.446C179.085,205.38 179.415,205.314 179.679,205.117C179.877,204.985 180.075,204.721 180.075,204.457L180.273,200.697C180.339,199.51 180.273,199.576 180.273,198.389C180.273,196.806 176.975,197.993 174.93,197.993C172.951,197.993 170.84,197.927 169.059,197.003C165.893,195.222 164.112,191.661 163.123,188.297C162.002,184.669 161.738,180.777 162.397,177.083C163.189,172.268 165.497,166.727 170.576,165.078C173.479,164.089 176.579,164.419 179.481,164.749C179.877,164.815 180.141,164.551 180.141,164.221ZM207.881,186.384C207.881,189.352 207.815,195.222 207.749,195.222L207.749,204.193C207.749,204.589 207.683,205.249 207.881,205.644C208.079,206.106 208.672,205.974 209.068,205.908C210.981,205.71 212.894,205.974 214.807,205.908C216.917,205.842 216.258,202.61 216.192,201.291C215.928,198.389 216.258,176.292 216.258,168.376C216.258,164.814 216.126,157.493 215.928,157.163C215.598,156.569 214.741,156.437 214.081,156.371C212.63,156.108 211.904,156.503 209.728,156.503C207.551,156.503 207.419,157.163 207.419,159.472L207.419,161.45C207.353,163.033 207.617,174.115 207.617,175.896C207.617,176.753 207.551,176.819 206.693,176.819C204.517,176.753 201.482,177.017 199.24,176.819C196.008,176.556 196.733,176.819 196.535,173.851L196.535,173.455C196.535,169.234 197.063,158.284 196.865,157.625C196.535,156.635 196.14,156.437 195.282,156.503C193.303,156.635 191.259,156.305 189.28,156.437C188.62,156.503 188.422,156.701 188.224,157.361C188.158,157.691 188.092,158.021 188.092,158.35C188.092,160.395 188.224,163.165 188.29,165.21L188.092,204.325C188.092,206.04 189.61,205.842 192.974,205.842C196.074,205.842 196.865,206.568 196.865,202.874C196.865,199.906 196.667,196.146 196.733,193.178C196.799,190.869 196.733,188.626 196.733,186.318C196.799,185.46 196.997,185.196 197.789,185.196C200.691,185.13 203.857,185.196 206.759,185.196C207.683,185.196 207.881,185.328 207.881,186.384ZM236.082,185.724L236.148,204.985C236.148,205.71 236.808,205.974 237.336,205.974L243.404,205.974C244.525,205.974 244.525,204.985 244.525,204.523C244.525,198.323 244.525,191.661 244.789,185.394C244.789,184.339 244.921,183.349 245.449,182.36C246.042,181.371 254.815,161.78 255.805,158.548C255.937,158.086 256.2,157.295 255.739,156.899C254.947,156.174 251.781,156.503 249.868,156.503C248.681,156.503 247.955,156.965 247.428,158.152C245.185,163.363 242.876,168.508 240.568,173.719C240.37,174.181 240.106,174.181 239.776,173.719C239.051,172.532 234.367,160.923 233.642,158.35C233.51,158.021 233.444,157.691 233.246,157.427C232.323,156.371 230.805,156.503 229.552,156.503C227.903,156.503 226.716,156.569 225.133,156.569C224.077,156.569 224.011,157.559 224.209,158.416C224.275,158.746 224.473,159.076 224.605,159.34C227.112,164.089 234.169,179.788 235.423,182.756C236.082,184.141 236.016,184.207 236.082,185.724ZM61.372,243.395C61.415,244.706 61.415,246.017 61.457,247.329C61.457,247.921 61.499,248.005 62.091,248.005L65.898,248.005C66.702,248.005 66.533,246.652 66.491,245.933L66.618,222.245C66.618,221.61 66.829,221.399 67.675,221.399L71.397,221.399C72.286,221.399 72.074,219.876 72.074,218.819C72.074,217.888 72.413,216.28 71.397,216.28C70.678,216.28 63.783,216.28 60.949,216.323C59.553,216.323 58.411,216.28 57.015,216.28C55.958,216.28 56,217.127 56,218.988C56,220.172 55.958,221.356 56.973,221.356C57.565,221.356 59.976,221.356 60.653,221.399C61.076,221.399 61.372,221.526 61.457,221.991C61.457,222.118 61.499,222.245 61.499,222.372C61.499,225.417 61.288,239.588 61.372,243.395L61.372,243.395ZM89.821,235.485C89.821,237.388 89.779,241.153 89.736,241.153L89.736,246.906C89.736,247.159 89.694,247.582 89.821,247.836C89.948,248.132 90.329,248.048 90.582,248.005C91.809,247.878 93.036,248.048 94.262,248.005C95.616,247.963 95.193,245.89 95.151,245.044C94.982,243.183 95.193,229.013 95.193,223.937C95.193,221.653 95.108,216.957 94.982,216.746C94.77,216.365 94.22,216.28 93.797,216.238C92.867,216.069 92.401,216.323 91.005,216.323C89.61,216.323 89.525,216.746 89.525,218.226L89.525,219.495C89.483,220.511 89.652,227.617 89.652,228.759C89.652,229.309 89.609,229.351 89.06,229.351C87.664,229.309 85.718,229.478 84.28,229.351C82.207,229.182 82.672,229.351 82.545,227.448L82.545,227.194C82.545,224.487 82.884,217.465 82.757,217.042C82.545,216.407 82.292,216.28 81.742,216.323C80.473,216.407 79.161,216.196 77.892,216.28C77.469,216.323 77.343,216.45 77.216,216.873C77.173,217.084 77.131,217.296 77.131,217.507C77.131,218.818 77.216,220.595 77.258,221.906L77.131,246.99C77.131,248.09 78.104,247.963 80.261,247.963C82.249,247.963 82.757,248.428 82.757,246.059C82.757,244.156 82.63,241.745 82.672,239.842C82.715,238.361 82.672,236.923 82.672,235.442C82.715,234.892 82.842,234.723 83.349,234.723C85.21,234.681 87.241,234.723 89.102,234.723C89.694,234.723 89.821,234.808 89.821,235.485ZM100.292,239.334L100.25,239.334C100.25,240.391 100.208,241.491 100.25,242.591C100.292,243.945 100.377,245.298 100.462,246.652C100.462,247.117 100.589,247.244 101.012,247.329C101.9,247.54 102.746,247.582 103.634,247.582C105.918,247.498 108.202,247.667 110.487,247.582C111.417,247.54 111.84,247.625 112.771,247.455C113.617,247.286 113.913,246.821 113.913,245.552C113.828,244.748 113.871,244.41 113.871,243.437C113.871,242.041 112.898,241.576 112.052,241.618C111.459,241.66 108.625,241.576 107.483,241.576C105.58,241.618 105.876,241.872 105.876,239.884C105.876,238.276 105.918,236.204 105.918,234.554C105.918,233.666 106.003,233.37 106.849,233.37L112.136,233.37C112.982,233.496 113.574,232.904 113.574,232.016C113.574,231.128 113.659,231.085 113.659,230.197L113.532,228.928C113.448,228.209 113.194,227.955 112.475,227.955C112.009,227.955 111.544,227.997 111.079,228.04C109.26,228.167 108.414,227.913 106.637,228.04C106.045,228.04 105.96,227.955 105.918,227.405C105.749,225.756 105.918,223.937 106.087,222.287C106.13,221.61 106.299,221.483 106.933,221.441L112.898,221.399C113.701,221.314 113.955,221.356 113.913,220.553C113.828,219.326 113.955,218.057 113.828,216.83C113.744,216.154 113.532,216.027 112.771,216.027C111.502,216.069 111.206,216.069 109.937,216.154C108.668,216.196 103.592,216.196 102.365,216.196C100.588,216.196 100.461,216.069 100.419,218.226C100.335,219.918 100.377,221.653 100.377,223.387C100.377,226.348 100.208,236.965 100.292,239.334ZM122.819,247.667C122.946,247.709 123.327,247.709 123.707,247.709C124.553,247.709 124.807,244.664 124.892,244.029C124.934,243.522 125.061,243.479 125.484,243.395C127.599,243.141 128.656,243.31 130.772,243.352C131.237,243.352 131.491,243.564 131.618,243.944L131.914,244.917C132.167,245.636 132.379,246.525 132.633,247.244C132.802,247.752 132.844,247.709 133.352,247.709C134.028,247.709 136.482,247.709 137.201,247.667C138.174,247.667 137.497,245.679 137.37,245.34C136.99,244.156 136.905,242.929 136.524,241.745C136.355,241.237 131.533,218.353 131.321,217.084C131.025,216.323 131.279,216.28 130.602,216.28C129.164,216.28 127.641,216.365 126.161,216.28C125.569,216.28 125.611,216.45 125.526,217.084C125.442,217.676 123.919,224.402 123.327,227.194C122.565,230.705 121.888,234.089 121.042,237.557C120.746,238.784 118.716,247.625 118.97,247.667C119.097,247.751 119.308,247.709 119.477,247.709C120.535,247.709 121.508,247.709 122.819,247.667ZM128.36,238.065L127.472,238.065C126.288,238.065 126.245,238.065 126.542,236.838C126.753,235.908 127.895,230.874 128.149,229.647C128.191,229.563 128.276,229.478 128.318,229.478C128.403,229.478 128.487,229.563 128.53,229.605C128.699,230.113 128.868,231.382 129.037,231.889C129.418,233.497 129.672,234.85 130.052,236.584C130.433,238.107 130.264,238.107 129.502,238.107C129.122,238.107 128.741,238.065 128.36,238.065ZM148.095,243.395C148.138,244.706 148.138,246.017 148.18,247.329C148.18,247.921 148.222,248.005 148.814,248.005L152.621,248.005C153.425,248.005 153.256,246.652 153.214,245.933L153.34,222.245C153.34,221.61 153.552,221.399 154.398,221.399L158.12,221.399C159.009,221.399 158.797,219.876 158.797,218.819C158.797,217.888 159.136,216.28 158.12,216.28C157.401,216.28 150.506,216.28 147.672,216.323C146.276,216.323 145.134,216.28 143.738,216.28C142.681,216.28 142.723,217.127 142.723,218.988C142.723,220.172 142.681,221.356 143.696,221.356C144.288,221.356 146.699,221.356 147.376,221.399C147.799,221.399 148.095,221.526 148.18,221.991C148.18,222.118 148.222,222.245 148.222,222.372C148.222,225.417 148.011,239.588 148.095,243.395L148.095,243.395ZM169.099,244.833C169.099,243.733 169.099,236.796 169.142,236.246C169.184,236.119 169.268,235.865 169.438,235.865C169.607,235.865 169.691,235.95 169.734,236.077C171.426,239.376 172.906,242.676 174.429,245.89C174.64,246.356 175.106,247.709 175.233,247.836C175.402,248.09 175.698,248.005 175.952,248.005L180.605,248.048C181.155,248.048 181.282,247.709 181.155,247.244C180.816,245.975 178.405,241.491 177.855,240.391C177.475,239.545 174.937,234.639 174.852,234.258C174.767,234.089 175.402,233.793 175.486,233.666C177.517,231.847 179.336,229.986 179.716,227.152C180.139,224.36 179.505,221.314 177.686,219.072C176.29,217.423 174.471,216.45 172.314,216.323C171.003,216.238 169.734,216.365 168.422,216.323C167.28,216.281 166.477,216.281 165.038,216.281C164.362,216.281 163.939,216.661 163.896,217.38L163.896,217.888C163.812,221.145 163.896,224.402 163.939,227.617C163.939,232.524 163.854,245.467 163.854,247.329C163.854,247.879 163.939,248.005 164.446,248.005C164.742,248.005 165.081,248.048 165.377,248.048C166.561,248.048 167.28,248.005 168.507,248.005C169.438,248.005 169.099,246.482 169.099,244.833ZM169.099,228.336L169.142,224.064C169.184,223.429 168.972,222.16 169.565,221.695C170.368,221.103 172.018,221.695 172.737,222.202C174.852,223.641 174.683,227.194 173.541,229.182C172.991,230.112 172.06,230.662 171.003,230.958C170.368,231.128 169.184,231.339 169.142,230.324C169.142,229.647 169.099,228.336 169.099,228.336L169.099,228.336ZM192.049,237.092C191.922,232.27 191.964,227.151 192.007,222.372C192.007,220.891 191.922,219.284 191.922,217.803C191.922,216.196 191.288,216.28 190.442,216.238C189.215,216.196 188.665,216.196 187.438,216.196C186.635,216.154 186.296,216.365 186.296,217.169C186.296,221.314 186.169,233.031 186.212,234.723C186.254,236.415 186.423,244.114 186.339,245.806C186.296,246.398 186.339,246.99 186.381,247.582C186.423,247.794 186.55,248.005 186.888,248.005C188.284,247.921 189.596,247.921 190.992,247.878C191.499,247.836 191.922,247.709 192.134,247.159C192.176,246.863 192.049,239.122 192.049,237.092L192.049,237.092ZM213.857,221.272C213.899,219.876 213.857,218.734 213.857,217.38C213.857,215.815 211.023,215.984 210.007,216.027C205.481,216.323 201.167,219.199 199.094,223.133C198.502,224.275 198.079,225.46 197.783,226.686C197.064,229.563 197.021,232.608 197.36,235.527C197.656,238.276 198.375,241.026 200.067,243.225C202.986,247.075 208.358,248.428 212.968,247.709C213.18,247.667 213.391,247.625 213.561,247.498C213.687,247.413 213.814,247.244 213.814,247.075L213.941,244.664C213.984,243.902 213.941,243.944 213.941,243.183C213.941,242.168 211.826,242.929 210.515,242.929C209.246,242.929 207.892,242.887 206.75,242.295C204.72,241.153 203.578,238.869 202.943,236.711C202.224,234.385 202.055,231.889 202.478,229.52C202.986,226.432 204.466,222.879 207.723,221.822C209.584,221.187 211.573,221.399 213.434,221.61C213.688,221.653 213.857,221.483 213.857,221.272ZM222.848,247.667C222.974,247.709 223.355,247.709 223.736,247.709C224.582,247.709 224.836,244.664 224.92,244.029C224.963,243.522 225.089,243.479 225.512,243.395C227.627,243.141 228.685,243.31 230.8,243.352C231.265,243.352 231.519,243.564 231.646,243.944L231.942,244.917C232.196,245.636 232.407,246.525 232.661,247.244C232.83,247.752 232.872,247.709 233.38,247.709C234.057,247.709 236.51,247.709 237.229,247.667C238.202,247.667 237.525,245.679 237.399,245.34C237.018,244.156 236.933,242.929 236.553,241.745C236.383,241.237 231.561,218.353 231.35,217.084C231.054,216.323 231.307,216.28 230.631,216.28C229.192,216.28 227.67,216.365 226.189,216.28C225.597,216.28 225.639,216.45 225.555,217.084C225.47,217.676 223.947,224.402 223.355,227.194C222.594,230.705 221.917,234.089 221.071,237.557C220.775,238.784 218.744,247.625 218.998,247.667C219.125,247.751 219.337,247.709 219.506,247.709C220.563,247.709 221.536,247.709 222.847,247.667ZM228.389,238.065L227.501,238.065C226.316,238.065 226.274,238.065 226.57,236.838C226.781,235.908 227.924,230.874 228.177,229.647C228.22,229.563 228.304,229.478 228.347,229.478C228.431,229.478 228.516,229.563 228.558,229.605C228.727,230.113 228.896,231.382 229.066,231.889C229.446,233.497 229.7,234.85 230.081,236.584C230.461,238.107 230.292,238.107 229.531,238.107C229.15,238.107 228.77,238.065 228.389,238.065ZM242.752,220.426C242.709,223.048 242.963,242.21 242.921,243.606C242.921,244.917 242.921,246.229 242.963,247.54C242.963,247.751 243.09,247.963 243.302,247.963C246.263,248.09 249.181,247.836 252.142,247.878C253.115,247.921 254.088,247.878 255.019,247.878C255.949,247.836 256.034,247.455 255.992,246.694C255.949,245.51 255.949,244.452 255.949,243.31C255.907,242.718 255.569,242.506 255.061,242.506C253.327,242.549 251.592,242.464 249.858,242.549C249.562,242.591 249.266,242.591 248.97,242.591C248.462,242.549 248.335,242.422 248.293,241.872L248.293,241.237C248.166,237.726 248.42,234.089 248.42,230.578C248.378,227.617 248.42,224.952 248.378,222.329C248.378,221.187 248.378,220.045 248.335,218.945C248.293,218.269 248.335,217.549 248.166,216.873C248.081,216.619 247.955,216.281 247.658,216.281L243.682,216.281C243.005,216.281 242.794,216.746 242.752,217.423L242.752,220.426Z" style="fill:rgb(248,177,149);fill-rule:nonzero;"/>
    </g>
</svg>
