<?xml version="1.0" encoding="UTF-8" standalone="no"?>
<!DOCTYPE svg PUBLIC "-//W3C//DTD SVG 1.1//EN" "http://www.w3.org/Graphics/SVG/1.1/DTD/svg11.dtd">
<svg width="100%" height="100%" viewBox="0 0 51 42" version="1.1" xmlns="http://www.w3.org/2000/svg" xmlns:xlink="http://www.w3.org/1999/xlink" xml:space="preserve" xmlns:serif="http://www.serif.com/" style="fill-rule:evenodd;clip-rule:evenodd;stroke-linejoin:round;stroke-miterlimit:2;">
    <g id="path22" transform="matrix(1,0,0,1,-625.829,-138.971)">
        <path d="M676.621,143.856C674.753,144.685 672.744,145.245 670.637,145.497C672.788,144.207 674.439,142.165 675.217,139.733C673.204,140.927 670.975,141.794 668.6,142.261C666.701,140.236 663.992,138.971 660.996,138.971C655.241,138.971 650.576,143.635 650.576,149.39C650.576,150.207 650.667,151.002 650.846,151.765C642.186,151.331 634.508,147.181 629.369,140.878C628.472,142.416 627.958,144.206 627.958,146.115C627.958,149.731 629.797,152.92 632.593,154.789C630.885,154.736 629.278,154.267 627.873,153.486C627.871,153.53 627.871,153.573 627.871,153.616C627.871,158.666 631.464,162.876 636.23,163.834C635.356,164.072 634.436,164.198 633.486,164.198C632.814,164.198 632.162,164.135 631.525,164.012C632.851,168.152 636.699,171.165 641.259,171.249C637.69,174.044 633.198,175.709 628.316,175.709C627.475,175.709 626.645,175.66 625.829,175.564C630.443,178.52 635.919,180.245 641.804,180.245C660.969,180.245 671.449,164.368 671.449,150.598C671.449,150.146 671.438,149.698 671.419,149.251C673.454,147.78 675.221,145.946 676.618,143.856" style="fill:rgb(85,172,238);fill-rule:nonzero;"/>
    </g>
</svg>
