<?xml version="1.0" encoding="UTF-8" standalone="no"?>
<!DOCTYPE svg PUBLIC "-//W3C//DTD SVG 1.1//EN" "http://www.w3.org/Graphics/SVG/1.1/DTD/svg11.dtd">
<svg width="100%" height="100%" viewBox="0 0 52 52" version="1.1" xmlns="http://www.w3.org/2000/svg" xmlns:xlink="http://www.w3.org/1999/xlink" xml:space="preserve" xmlns:serif="http://www.serif.com/" style="fill-rule:evenodd;clip-rule:evenodd;stroke-linejoin:round;stroke-miterlimit:2;">
    <g id="rect3687" transform="matrix(1,0,0,1,-712.088,-129.068)">
        <path d="M727.049,129.068C718.798,129.068 712.088,135.782 712.088,144.033L712.088,165.67C712.088,173.92 718.798,180.63 727.049,180.63L748.815,180.63C757.066,180.63 763.776,173.92 763.776,165.67L763.776,144.033C763.776,135.782 757.066,129.068 748.815,129.068L727.049,129.068ZM727.049,133.501L748.815,133.501C754.688,133.501 759.347,138.16 759.347,144.033L759.347,165.67C759.347,171.542 754.688,176.198 748.815,176.198L727.049,176.198C721.176,176.198 716.521,171.542 716.521,165.67L716.521,144.033C716.521,138.16 721.176,133.501 727.049,133.501ZM751.804,137.934C750.091,137.934 748.704,139.321 748.704,141.033C748.704,142.745 750.091,144.133 751.804,144.133C753.516,144.133 754.903,142.745 754.903,141.033C754.903,139.321 753.516,137.934 751.804,137.934ZM737.932,141.574C730.626,141.574 724.656,147.543 724.656,154.849C724.656,162.155 730.626,168.125 737.932,168.125C745.238,168.125 751.211,162.155 751.211,154.849C751.211,147.543 745.238,141.574 737.932,141.574ZM737.932,146.006C742.843,146.006 746.779,149.938 746.779,154.849C746.779,159.76 742.843,163.692 737.932,163.692C733.021,163.692 729.089,159.76 729.089,154.849C729.089,149.938 733.021,146.006 737.932,146.006Z" style="fill:rgb(193,53,132);fill-rule:nonzero;"/>
    </g>
</svg>
